<?xml version="1.0" encoding="UTF-8" standalone="no"?>
<svg
   version="1.0"
   width="18.185232pt"
   height="18.202518pt"
   viewBox="0 0 18.185232 18.202518"
   preserveAspectRatio="xMidYMid"
   id="svg2"
   sodipodi:docname="xing.svg"
   xmlns:inkscape="http://www.inkscape.org/namespaces/inkscape"
   xmlns:sodipodi="http://sodipodi.sourceforge.net/DTD/sodipodi-0.dtd"
   xmlns="http://www.w3.org/2000/svg"
   xmlns:svg="http://www.w3.org/2000/svg">
  <defs
     id="defs2" />
  <sodipodi:namedview
     id="namedview2"
     pagecolor="#ffffff"
     bordercolor="#000000"
     borderopacity="0.25"
     inkscape:showpageshadow="2"
     inkscape:pageopacity="0.0"
     inkscape:pagecheckerboard="0"
     inkscape:deskcolor="#d1d1d1"
     inkscape:document-units="pt">
    <inkscape:page
       x="0"
       y="0"
       width="18.185232"
       height="18.202518"
       id="page2"
       margin="0"
       bleed="0" />
  </sodipodi:namedview>
  <g
     transform="matrix(0.00757718,0,0,-0.00758831,0,18.211944)"
     fill="#000000"
     stroke="none"
     id="g2"
     inkscape:export-filename="g2.svg"
     inkscape:export-xdpi="96"
     inkscape:export-ydpi="96">
    <path
       d="M 1777,2382 C 1745,2347 968,975 968,954 968,942 1086,724 1232,469 L 1496,5 1789,2 c 267,-2 296,-1 313,15 12,11 17,25 14,39 -3,11 -118,217 -255,458 l -250,436 395,690 c 217,379 394,697 394,706 0,8 -5,24 -10,35 -10,18 -24,19 -304,19 -271,0 -294,-1 -309,-18 z m 474,-99 c -5,-10 -176,-310 -381,-668 -269,-470 -370,-656 -366,-671 3,-12 111,-205 239,-430 l 234,-409 -205,-3 c -157,-2 -209,1 -217,10 -7,7 -117,197 -245,423 -192,339 -231,413 -224,431 5,13 178,317 384,678 l 375,656 h 208 c 195,0 207,-1 198,-17 z"
       id="path1" />
    <path
       d="m 116,1984 c -9,-8 -16,-24 -16,-34 0,-10 59,-126 131,-257 72,-131 137,-250 144,-264 13,-25 6,-39 -181,-345 C 88,909 0,758 0,748 c 0,-9 7,-24 16,-32 13,-14 54,-16 288,-16 247,0 274,2 288,18 23,25 404,653 412,677 4,15 -36,97 -145,295 -83,151 -158,283 -166,293 -15,15 -42,17 -289,17 -234,0 -275,-2 -288,-16 z M 761,1652 896,1404 712,1102 528,800 H 334 140 l 127,208 c 192,315 233,385 233,400 0,8 -53,111 -119,230 -65,120 -124,227 -130,240 l -12,22 h 193 193 z"
       id="path2" />
  </g>
</svg>
